<!-- GAZ monogram — Inter 700 outlines, Nocturne tokens (bg #161826, accent-900 bloom, accent-300 letters) -->
<svg xmlns="http://www.w3.org/2000/svg" viewBox="0 0 64 64" role="img" aria-label="GAZ — Gustavo A. Zarruk">
  <title>GAZ — Gustavo A. Zarruk</title>
  <defs>
    <!-- Nocturne "lit ground": accent-tinted bloom off the top-right corner -->
    <radialGradient id="gaz-bloom" cx="0.88" cy="0.06" r="0.95">
      <stop offset="0" stop-color="#2b2741"/>
      <stop offset="0.62" stop-color="#2b2741" stop-opacity="0"/>
    </radialGradient>
  </defs>
  <rect width="64" height="64" rx="14" fill="#161826"/>
  <rect width="64" height="64" rx="14" fill="url(#gaz-bloom)"/>
  <path fill="#d2cefd" d="M13.67 41.47Q11.09 41.47 9.14 40.32Q7.19 39.18 6.10 37.05Q5.00 34.93 5.00 32.02Q5.00 29.03 6.14 26.91Q7.28 24.79 9.22 23.66Q11.16 22.53 13.59 22.53Q15.15 22.53 16.49 22.99Q17.83 23.44 18.88 24.27Q19.92 25.10 20.59 26.23Q21.25 27.36 21.45 28.73H17.61Q17.41 28.07 17.06 27.54Q16.71 27.01 16.20 26.64Q15.70 26.27 15.06 26.08Q14.42 25.89 13.65 25.89Q12.23 25.89 11.14 26.60Q10.05 27.31 9.44 28.67Q8.84 30.03 8.84 31.99Q8.84 33.94 9.44 35.31Q10.04 36.68 11.13 37.40Q12.21 38.11 13.70 38.11Q15.04 38.11 15.99 37.63Q16.94 37.15 17.45 36.25Q17.97 35.35 17.97 34.15L18.76 34.26H13.96V31.39H21.63V33.70Q21.63 36.12 20.60 37.86Q19.58 39.60 17.78 40.53Q15.99 41.47 13.67 41.47Z M24.35 41.22 30.65 22.78H35.60L42.06 41.22H37.87L34.91 32.32Q34.38 30.60 33.83 28.55Q33.27 26.51 32.67 24.08H33.50Q32.90 26.52 32.39 28.58Q31.88 30.64 31.37 32.32L28.52 41.22ZM28.29 36.94V33.98H38.13V36.94Z M44.98 41.22V38.95L52.45 28.40Q53.15 27.43 53.98 26.46Q54.81 25.49 55.65 24.54L55.93 25.76Q54.69 25.87 53.45 25.89Q52.21 25.91 50.97 25.91H44.94V22.78H58.96V25.06L51.63 35.43Q50.90 36.44 50.04 37.45Q49.18 38.46 48.30 39.46L48.01 38.24Q49.31 38.13 50.60 38.11Q51.90 38.09 53.18 38.09H59.00V41.22Z"/>
</svg>
